<svg width="100" height="32" viewBox="0 0 100 32" fill="none" xmlns="http://www.w3.org/2000/svg">
<rect y="0.478027" width="100" height="31.044" rx="15.522" fill="#265276"/>
<path fill-rule="evenodd" clip-rule="evenodd" d="M11.9199 21.7378C12.4286 23.1757 13.1036 24.3969 13.945 25.4012C14.2946 25.8186 14.825 26.0276 15.3695 26.0276H17.2232C17.3367 26.0276 17.4287 25.9356 17.4287 25.8221C17.4287 25.7704 17.4091 25.7206 17.3742 25.6823C16.2528 24.4557 15.3815 23.0097 14.7604 21.3445C14.1291 19.6524 13.8135 17.8948 13.8135 16.0716C13.8135 14.2365 14.1406 12.4551 14.7948 10.7272C15.4385 9.01517 16.349 7.54545 17.5263 6.31806C17.5629 6.27984 17.5836 6.22902 17.5836 6.17606C17.5836 6.06372 17.4926 5.97266 17.3802 5.97266H15.5157C14.9865 5.97266 14.4698 6.16891 14.1189 6.56503C13.2106 7.59032 12.4891 8.84664 11.9543 10.334C11.3116 12.1095 10.9902 14.022 10.9902 16.0716C10.9902 18.0974 11.3001 19.9861 11.9199 21.7378ZM88.0825 10.2625C87.5737 8.82452 86.8987 7.60337 86.0574 6.59904C85.7077 6.18163 85.1773 5.97266 84.6328 5.97266H82.7791C82.6656 5.97266 82.5736 6.06465 82.5736 6.17812C82.5736 6.22989 82.5932 6.2797 82.6282 6.31791C83.7495 7.54458 84.6208 8.99051 85.242 10.6557C85.8732 12.3478 86.1888 14.1055 86.1888 15.9286C86.1888 17.7637 85.8617 19.5452 85.2076 21.273C84.5638 22.9851 83.6533 24.4548 82.4761 25.6822C82.4394 25.7204 82.4187 25.7712 82.4187 25.8242C82.4187 25.9365 82.5098 26.0276 82.6221 26.0276H84.4867C85.0159 26.0276 85.5325 25.8314 85.8834 25.4352C86.7917 24.4099 87.5133 23.1536 88.0481 21.6663C88.6908 19.8908 89.0121 17.9782 89.0121 15.9286C89.0121 13.9029 88.7022 12.0142 88.0825 10.2625ZM69.6435 8.77097C65.6509 8.77097 62.4143 12.0076 62.4143 16.0001C62.4143 19.9927 65.6509 23.2293 69.6435 23.2293C73.636 23.2293 76.8726 19.9927 76.8726 16.0001C76.8726 12.0076 73.636 8.77097 69.6435 8.77097ZM69.6435 26.0276C75.1815 26.0276 79.6709 21.5382 79.6709 16.0001C79.6709 10.4621 75.1815 5.97266 69.6435 5.97266C64.1054 5.97266 59.616 10.4621 59.616 16.0001C59.616 21.5382 64.1054 26.0276 69.6435 26.0276ZM36.8649 16.0001C36.8649 12.0076 40.1015 8.77097 44.0941 8.77097C48.0866 8.77097 51.3232 12.0076 51.3232 16.0001C51.3232 19.9927 48.0866 23.2293 44.0941 23.2293C40.1015 23.2293 36.8649 19.9927 36.8649 16.0001ZM54.1215 16.0001C54.1215 21.5382 49.6321 26.0276 44.0941 26.0276C38.556 26.0276 34.0666 21.5382 34.0666 16.0001C34.0666 10.4621 38.556 5.97266 44.0941 5.97266C49.6321 5.97266 54.1215 10.4621 54.1215 16.0001Z" fill="#001424"/>
</svg>
