<svg width="32" height="32" viewBox="0 0 32 32" fill="none" xmlns="http://www.w3.org/2000/svg">
<path d="M25.3339 14.6667H10.4406L16.9472 8.16003C17.4672 7.64003 17.4672 6.7867 16.9472 6.2667C16.8239 6.14309 16.6773 6.04503 16.5161 5.97812C16.3548 5.91121 16.1818 5.87677 16.0072 5.87677C15.8326 5.87677 15.6597 5.91121 15.4984 5.97812C15.3371 6.04503 15.1906 6.14309 15.0672 6.2667L6.28055 15.0534C6.15695 15.1767 6.05888 15.3232 5.99197 15.4845C5.92507 15.6458 5.89063 15.8187 5.89062 15.9934C5.89063 16.168 5.92507 16.3409 5.99197 16.5022C6.05888 16.6635 6.15695 16.81 6.28055 16.9334L15.0672 25.72C15.1907 25.8435 15.3372 25.9414 15.4985 26.0082C15.6598 26.075 15.8326 26.1094 16.0072 26.1094C16.1818 26.1094 16.3547 26.075 16.5159 26.0082C16.6772 25.9414 16.8238 25.8435 16.9472 25.72C17.0707 25.5966 17.1686 25.45 17.2354 25.2888C17.3022 25.1275 17.3366 24.9546 17.3366 24.78C17.3366 24.6055 17.3022 24.4326 17.2354 24.2713C17.1686 24.11 17.0707 23.9635 16.9472 23.84L10.4406 17.3334H25.3339C26.0672 17.3334 26.6672 16.7334 26.6672 16C26.6672 15.2667 26.0672 14.6667 25.3339 14.6667Z" fill="white"/>
</svg>
