<svg width="64" height="64" viewBox="0 0 64 64" fill="none" xmlns="http://www.w3.org/2000/svg">
<path d="M32.0001 35.7333L18.9335 48.8C18.4446 49.2889 17.8224 49.5333 17.0668 49.5333C16.3112 49.5333 15.689 49.2889 15.2001 48.8C14.7112 48.3111 14.4668 47.6889 14.4668 46.9333C14.4668 46.1778 14.7112 45.5556 15.2001 45.0667L28.2668 32L15.2001 18.9333C14.7112 18.4445 14.4668 17.8222 14.4668 17.0667C14.4668 16.3111 14.7112 15.6889 15.2001 15.2C15.689 14.7111 16.3112 14.4667 17.0668 14.4667C17.8224 14.4667 18.4446 14.7111 18.9335 15.2L32.0001 28.2667L45.0668 15.2C45.5557 14.7111 46.1779 14.4667 46.9335 14.4667C47.689 14.4667 48.3112 14.7111 48.8001 15.2C49.289 15.6889 49.5335 16.3111 49.5335 17.0667C49.5335 17.8222 49.289 18.4445 48.8001 18.9333L35.7335 32L48.8001 45.0667C49.289 45.5556 49.5335 46.1778 49.5335 46.9333C49.5335 47.6889 49.289 48.3111 48.8001 48.8C48.3112 49.2889 47.689 49.5333 46.9335 49.5333C46.1779 49.5333 45.5557 49.2889 45.0668 48.8L32.0001 35.7333Z" fill="white"/>
</svg>
