<svg width="116" height="50" viewBox="0 0 116 50" fill="none" xmlns="http://www.w3.org/2000/svg">
<path d="M39.7368 18.2351V41.3835C39.7368 41.8988 39.3193 42.318 38.8062 42.318H32.796C32.2829 42.318 31.8654 41.8988 31.8654 41.3835V18.2351C31.8654 17.7198 32.2829 17.3005 32.796 17.3005H38.8062C39.3193 17.3005 39.7368 17.7176 39.7368 18.2351ZM30.3389 41.2677L23.3372 29.2383L29.9737 18.3923C30.2911 17.9294 29.9628 17.2983 29.4039 17.2983L22.1087 17.3114C21.8782 17.3114 21.6607 17.4271 21.5324 17.6193L16.3768 26.4171H13.3673V18.2351C13.3673 17.7198 12.9499 17.3005 12.4368 17.3005H6.42871C5.91554 17.3005 5.49805 17.7198 5.49805 18.2351V41.3835C5.49805 41.8988 5.91554 42.318 6.42871 42.318H12.4389C12.952 42.318 13.3696 41.8988 13.3696 41.3835V33.2342H17.0313L22.1564 41.9883C22.2826 42.1979 22.5087 42.329 22.7522 42.329H29.7475C30.2911 42.329 30.6238 41.7328 30.3389 41.2677ZM109.121 42.318C109.635 42.318 110.052 41.8988 110.052 41.3835V18.2351C110.052 17.7198 109.635 17.3005 109.121 17.3005H103.329C102.815 17.3005 102.398 17.7198 102.398 18.2351L102.435 30.0767L91.9193 17.3114H85.2393C84.7262 17.3114 84.3087 17.7307 84.3087 18.246V41.3965C84.3087 41.9118 84.7239 42.329 85.2371 42.329H91.0168C91.53 42.329 91.9453 41.9118 91.9453 41.3965V29.5396L102.354 42.318H109.121ZM81.8993 18.3312V41.2852C81.8993 41.8551 81.4384 42.318 80.8709 42.318H43.1725C42.605 42.318 42.144 41.8551 42.144 41.2852V18.3312C42.144 17.7613 42.605 17.2983 43.1725 17.2983H80.873C81.4384 17.3005 81.8993 17.7613 81.8993 18.3312ZM74.0757 23.9518C74.0757 23.7443 73.8866 23.5892 73.6821 23.6308C69.6094 24.4475 55.1885 24.5719 50.3526 23.6242C50.1524 23.585 49.9677 23.74 49.9677 23.9474V35.3042C49.9677 35.5052 50.1438 35.658 50.3438 35.6296C54.3535 35.0336 69.5964 35.1317 73.7104 35.6428C73.9061 35.6668 74.0757 35.5139 74.0757 35.3174V23.9518Z" fill="#265276"/>
<path d="M5.22461 10.9351C5.22461 9.25164 6.46186 8.03101 8.07966 8.03101C9.70397 8.03101 10.9347 9.25164 10.9347 10.9351C10.9347 12.6188 9.70397 13.8393 8.07966 13.8393C6.46186 13.8372 5.22461 12.6253 5.22461 10.9351ZM9.71049 10.9351C9.71049 9.79535 8.91682 9.149 8.07966 9.149C7.2338 9.149 6.44883 9.79754 6.44883 10.9351C6.44883 12.0816 7.2425 12.7301 8.07966 12.7301C8.91682 12.7301 9.71049 12.0728 9.71049 10.9351Z" fill="#265276"/>
<path d="M16.4509 11.4856H14.1895V13.7106H12.9805V8.15771H14.1895V10.3828H16.4509V8.15771H17.6512V13.7106H16.4509V11.4856Z" fill="#265276"/>
<path d="M20.1348 12.6908C20.7937 12.6908 21.0611 12.2738 21.0611 11.2759V8.15552H24.8577V13.7084H23.6487V9.26478H22.2396V11.2606C22.2396 13.025 21.6308 13.7477 20.1348 13.7477V12.6908Z" fill="#265276"/>
<path d="M31.266 13.7106L30.7767 12.3546H28.7088L28.2348 13.7106H26.9736L29.0415 8.15771H30.4353L32.5336 13.7106H31.266ZM29.0415 11.3589H30.4353L29.7395 9.4242L29.0415 11.3589Z" fill="#265276"/>
<path d="M34.6318 8.15767H35.7821V11.8872H35.7886L38.3327 8.15767H39.4961V13.7106H38.348V9.93512H38.3415L35.7909 13.7106H34.6341V8.15767H34.6318ZM37.0998 7.65762C36.3214 7.65762 35.6756 7.26239 35.6756 6.31689H36.5214C36.5214 6.77108 36.6998 7.01565 37.0998 7.01565C37.5 7.01565 37.6782 6.7689 37.6782 6.31689H38.5241C38.5306 7.26457 37.887 7.65762 37.0998 7.65762Z" fill="#265276"/>
<path d="M45.6501 11.4856H43.3886V13.7106H42.1797V8.15771H43.3886V10.3828H45.6501V8.15771H46.8504V13.7106H45.6501V11.4856Z" fill="#265276"/>
<path d="M49.3809 10.8828H51.5379V11.7977H49.3809V10.8828Z" fill="#265276"/>
<path d="M57.3507 13.7106L55.2676 11.0684V13.7106H54.0586V8.15771H55.2676V10.7628L57.3355 8.15771H58.7511L56.5418 10.8981L58.7945 13.7128H57.3507V13.7106Z" fill="#265276"/>
<path d="M60.8516 8.15771H62.0019V11.8873H62.0084L64.5525 8.15771H65.7158V13.7106H64.5676V9.93516H64.5611L62.0105 13.7106H60.8537V8.15771H60.8516Z" fill="#265276"/>
<path d="M71.8688 11.4856H69.6075V13.7106H68.3984V8.15771H69.6075V10.3828H71.8688V8.15771H73.0691V13.7106H71.8688V11.4856Z" fill="#265276"/>
<path d="M75.127 10.9351C75.127 9.25164 76.3641 8.03101 77.982 8.03101C79.6063 8.03101 80.837 9.25164 80.837 10.9351C80.837 12.6188 79.6063 13.8393 77.982 13.8393C76.3641 13.8372 75.127 12.6253 75.127 10.9351ZM79.6128 10.9351C79.6128 9.79535 78.8191 9.149 77.982 9.149C77.1361 9.149 76.3511 9.79754 76.3511 10.9351C76.3511 12.0816 77.1448 12.7301 77.982 12.7301C78.8191 12.7279 79.6128 12.0728 79.6128 10.9351Z" fill="#265276"/>
<path d="M83.8548 9.26698H82.2305V8.15771H86.6708V9.26698H85.0551V13.7106H83.8548V9.26698Z" fill="#265276"/>
<path d="M88.5732 8.15771H92.0436V9.2517H89.7823V10.4046H91.8501V11.4091H89.7823V12.6231H92.0436V13.7106H88.5732V8.15771Z" fill="#265276"/>
<path d="M98.2718 13.7106L97.7825 12.3546H95.7147L95.2407 13.7106H93.9795L96.0473 8.15771H97.4411L99.5395 13.7106H98.2718ZM96.0473 11.3589H97.4411L96.7454 9.4242L96.0473 11.3589Z" fill="#265276"/>
<path d="M101.894 9.26698H100.27V8.15771H104.71V9.26698H103.094V13.7106H101.894V9.26698Z" fill="#265276"/>
<path d="M106.286 8.15771H107.918C109.437 8.15771 110.326 8.9176 110.326 10.1077C110.326 11.2322 109.496 12.1406 107.991 12.1406H107.493V13.7106H106.284V8.15771H106.286ZM109.102 10.1535C109.102 9.57268 108.665 9.26698 108.035 9.26698H107.493V11.0619H108.041C108.665 11.0619 109.102 10.7344 109.102 10.1535Z" fill="#265276"/>
</svg>
