<svg width="64" height="64" viewBox="0 0 64 64" fill="none" xmlns="http://www.w3.org/2000/svg">
<path d="M40 50.6668C38.5334 50.6668 37.2774 50.1442 36.232 49.0988C35.1867 48.0535 34.6649 46.7984 34.6667 45.3335V18.6668C34.6667 17.2002 35.1894 15.9442 36.2347 14.8988C37.28 13.8535 38.5352 13.3317 40 13.3335H45.3334C46.8 13.3335 48.056 13.8562 49.1014 14.9015C50.1467 15.9468 50.6685 17.2019 50.6667 18.6668V45.3335C50.6667 46.8002 50.144 48.0562 49.0987 49.1015C48.0534 50.1468 46.7983 50.6686 45.3334 50.6668H40ZM18.6667 50.6668C17.2 50.6668 15.944 50.1442 14.8987 49.0988C13.8534 48.0535 13.3316 46.7984 13.3334 45.3335V18.6668C13.3334 17.2002 13.856 15.9442 14.9014 14.8988C15.9467 13.8535 17.2018 13.3317 18.6667 13.3335H24C25.4667 13.3335 26.7227 13.8562 27.768 14.9015C28.8134 15.9468 29.3352 17.2019 29.3334 18.6668V45.3335C29.3334 46.8002 28.8107 48.0562 27.7654 49.1015C26.72 50.1468 25.4649 50.6686 24 50.6668H18.6667Z" fill="white"/>
</svg>
