<svg width="40" height="40" viewBox="0 0 40 40" fill="none" xmlns="http://www.w3.org/2000/svg">
<path d="M24.9997 31.6666C24.083 31.6666 23.298 31.34 22.6447 30.6866C21.9913 30.0333 21.6652 29.2489 21.6663 28.3333V11.6666C21.6663 10.75 21.993 9.96498 22.6463 9.31165C23.2997 8.65832 24.0841 8.3322 24.9997 8.33332H28.333C29.2497 8.33332 30.0347 8.65998 30.688 9.31332C31.3413 9.96665 31.6675 10.7511 31.6663 11.6666V28.3333C31.6663 29.25 31.3397 30.035 30.6863 30.6883C30.033 31.3417 29.2486 31.6678 28.333 31.6666H24.9997ZM11.6663 31.6666C10.7497 31.6666 9.96468 31.34 9.31134 30.6866C8.65801 30.0333 8.3319 29.2489 8.33301 28.3333V11.6666C8.33301 10.75 8.65968 9.96498 9.31301 9.31165C9.96634 8.65832 10.7508 8.3322 11.6663 8.33332H14.9997C15.9163 8.33332 16.7013 8.65998 17.3547 9.31332C18.008 9.96665 18.3341 10.7511 18.333 11.6666V28.3333C18.333 29.25 18.0063 30.035 17.353 30.6883C16.6997 31.3417 15.9152 31.6678 14.9997 31.6666H11.6663Z" fill="white"/>
</svg>
