<svg width="40" height="40" viewBox="0 0 40 40" fill="none" xmlns="http://www.w3.org/2000/svg">
<path d="M16.3217 21.3217C16.6216 21.0228 17.0241 20.8492 17.4473 20.8363C17.8706 20.8234 18.2829 20.972 18.6005 21.2521C18.9181 21.5321 19.1172 21.9226 19.1573 22.3441C19.1975 22.7657 19.0757 23.1867 18.8167 23.5217L18.6783 23.6783L10.69 31.6667H15C15.4248 31.6671 15.8334 31.8298 16.1423 32.1214C16.4512 32.413 16.6371 32.8116 16.662 33.2357C16.6868 33.6597 16.5489 34.0773 16.2762 34.4031C16.0036 34.7288 15.6168 34.9382 15.195 34.9883L15 35H6.66667C6.25844 34.9999 5.86444 34.8501 5.55938 34.5788C5.25432 34.3075 5.05943 33.9338 5.01167 33.5283L5 33.3333V25C5.00047 24.5752 5.16313 24.1666 5.45475 23.8577C5.74636 23.5488 6.14492 23.3629 6.56899 23.338C6.99306 23.3132 7.41063 23.4511 7.73639 23.7238C8.06214 23.9964 8.27149 24.3832 8.32167 24.805L8.33333 25V29.31L16.3217 21.3217ZM33.3333 5C33.7416 5.00005 34.1356 5.14993 34.4406 5.42119C34.7457 5.69246 34.9406 6.06625 34.9883 6.47167L35 6.66667V15C34.9995 15.4248 34.8369 15.8334 34.5453 16.1423C34.2536 16.4512 33.8551 16.6371 33.431 16.662C33.0069 16.6868 32.5894 16.5489 32.2636 16.2762C31.9379 16.0036 31.7285 15.6168 31.6783 15.195L31.6667 15V10.69L23.6783 18.6783C23.3784 18.9772 22.9759 19.1508 22.5527 19.1637C22.1294 19.1766 21.7171 19.028 21.3995 18.7479C21.0819 18.4679 20.8828 18.0774 20.8427 17.6559C20.8025 17.2343 20.9243 16.8133 21.1833 16.4783L21.3217 16.3217L29.31 8.33333H25C24.5752 8.33286 24.1666 8.1702 23.8577 7.87859C23.5488 7.58697 23.3629 7.18841 23.338 6.76434C23.3132 6.34027 23.4511 5.9227 23.7238 5.59695C23.9964 5.27119 24.3832 5.06184 24.805 5.01167L25 5H33.3333Z" fill="white"/>
</svg>
