<svg width="40" height="40" viewBox="0 0 40 40" fill="none" xmlns="http://www.w3.org/2000/svg">
<path d="M18.3332 19.9998C18.7414 19.9998 19.1355 20.1497 19.4405 20.421C19.7456 20.6922 19.9405 21.066 19.9882 21.4714L19.9999 21.6664V29.9998C19.9994 30.4246 19.8368 30.8332 19.5451 31.1421C19.2535 31.451 18.855 31.6368 18.4309 31.6617C18.0068 31.6866 17.5893 31.5487 17.2635 31.276C16.9377 31.0034 16.7284 30.6166 16.6782 30.1948L16.6666 29.9998V25.6898L7.84489 34.5114C7.54496 34.8104 7.1425 34.9839 6.71925 34.9968C6.296 35.0097 5.8837 34.8611 5.56609 34.581C5.24848 34.301 5.04938 33.9105 5.00922 33.489C4.96907 33.0674 5.09087 32.6464 5.34989 32.3114L5.48822 32.1548L14.3099 23.3331H9.99989C9.57509 23.3326 9.1665 23.17 8.85761 22.8784C8.54871 22.5867 8.36283 22.1882 8.33794 21.7641C8.31304 21.34 8.45101 20.9225 8.72366 20.5967C8.99631 20.271 9.38306 20.0616 9.80489 20.0114L9.99989 19.9998H18.3332ZM32.1549 5.48811C32.4548 5.1892 32.8573 5.01565 33.2805 5.00273C33.7038 4.98981 34.1161 5.13847 34.4337 5.41853C34.7513 5.69858 34.9504 6.08903 34.9906 6.51057C35.0307 6.93211 34.9089 7.35312 34.6499 7.68811L34.5116 7.84478L25.6899 16.6664H29.9999C30.4247 16.6669 30.8333 16.8296 31.1422 17.1212C31.4511 17.4128 31.6369 17.8114 31.6618 18.2354C31.6867 18.6595 31.5488 19.0771 31.2761 19.4028C31.0035 19.7286 30.6167 19.9379 30.1949 19.9881L29.9999 19.9998H21.6666C21.2583 19.9997 20.8643 19.8499 20.5593 19.5786C20.2542 19.3073 20.0593 18.9335 20.0116 18.5281L19.9999 18.3331V9.99978C20.0004 9.57498 20.163 9.16639 20.4546 8.8575C20.7463 8.5486 21.1448 8.36272 21.5689 8.33782C21.993 8.31293 22.4105 8.4509 22.7363 8.72355C23.062 8.9962 23.2714 9.38295 23.3216 9.80478L23.3332 9.99978V14.3098L32.1549 5.48811Z" fill="white"/>
</svg>
