<svg width="40" height="40" viewBox="0 0 40 40" fill="none" xmlns="http://www.w3.org/2000/svg">
<path d="M29.167 30C28.6948 30 28.2987 29.84 27.9787 29.52C27.6587 29.2 27.4992 28.8045 27.5003 28.3333V11.6667C27.5003 11.1945 27.6603 10.7983 27.9803 10.4783C28.3003 10.1583 28.6959 9.99889 29.167 10C29.6392 10 30.0353 10.16 30.3553 10.48C30.6753 10.8 30.8348 11.1956 30.8337 11.6667V28.3333C30.8337 28.8056 30.6737 29.2017 30.3537 29.5217C30.0337 29.8417 29.6381 30.0011 29.167 30ZM11.7503 28.2917C11.1948 28.6806 10.6253 28.7083 10.042 28.375C9.45866 28.0417 9.16699 27.5417 9.16699 26.875V13.125C9.16699 12.4583 9.45866 11.965 10.042 11.645C10.6253 11.325 11.1948 11.3461 11.7503 11.7083L22.0837 18.625C22.5837 18.9583 22.8337 19.4167 22.8337 20C22.8337 20.5833 22.5837 21.0417 22.0837 21.375L11.7503 28.2917Z" fill="white"/>
</svg>
