<svg width="64" height="64" viewBox="0 0 64 64" fill="none" xmlns="http://www.w3.org/2000/svg">
<path d="M8 25C8 24.4477 8.44772 24 9 24H18.2525C18.5177 24 18.772 23.8946 18.9596 23.7071L30.2929 12.3737C30.9229 11.7438 32 12.1899 32 13.0808V50.9191C32 51.81 30.9229 52.2562 30.2929 51.6262L18.9596 40.2929C18.772 40.1053 18.5177 40 18.2525 40H9C8.44772 40 8 39.5522 8 39V25ZM37.3333 30.3333C37.3333 29.781 37.781 29.3333 38.3333 29.3333H44.3333C44.8856 29.3333 45.3333 28.8856 45.3333 28.3333V22.3333C45.3333 21.781 45.7811 21.3333 46.3333 21.3333H49.6667C50.219 21.3333 50.6667 21.781 50.6667 22.3333V28.3333C50.6667 28.8856 51.1144 29.3333 51.6667 29.3333H57.6667C58.219 29.3333 58.6667 29.781 58.6667 30.3333V33.6666C58.6667 34.2189 58.219 34.6666 57.6667 34.6666H51.6667C51.1144 34.6666 50.6667 35.1143 50.6667 35.6666V41.6666C50.6667 42.2189 50.219 42.6666 49.6667 42.6666H46.3333C45.7811 42.6666 45.3333 42.2189 45.3333 41.6666V35.6666C45.3333 35.1143 44.8856 34.6666 44.3333 34.6666H38.3333C37.781 34.6666 37.3333 34.2189 37.3333 33.6666V30.3333Z" fill="white"/>
</svg>
