<svg width="40" height="40" viewBox="0 0 40 40" fill="none" xmlns="http://www.w3.org/2000/svg">
<path d="M5 16C5 15.4477 5.44772 15 6 15H11.2525C11.5177 15 11.772 14.8946 11.9596 14.7071L18.2929 8.37373C18.9229 7.74377 20 8.18993 20 9.08084V30.9191C20 31.81 18.9229 32.2562 18.2929 31.6262L11.9596 25.2929C11.772 25.1053 11.5177 25 11.2525 25H6C5.44771 25 5 24.5522 5 24V16ZM23.3333 19.3333C23.3333 18.781 23.781 18.3333 24.3333 18.3333H27.3333C27.8856 18.3333 28.3333 17.8856 28.3333 17.3333V14.3333C28.3333 13.781 28.781 13.3333 29.3333 13.3333H30.6667C31.219 13.3333 31.6667 13.781 31.6667 14.3333V17.3333C31.6667 17.8856 32.1144 18.3333 32.6667 18.3333H35.6667C36.219 18.3333 36.6667 18.781 36.6667 19.3333V20.6666C36.6667 21.2189 36.219 21.6666 35.6667 21.6666H32.6667C32.1144 21.6666 31.6667 22.1143 31.6667 22.6666V25.6666C31.6667 26.2189 31.219 26.6666 30.6667 26.6666H29.3333C28.781 26.6666 28.3333 26.2189 28.3333 25.6666V22.6666C28.3333 22.1143 27.8856 21.6666 27.3333 21.6666H24.3333C23.781 21.6666 23.3333 21.2189 23.3333 20.6666V19.3333Z" fill="white"/>
</svg>
