<svg width="32" height="32" viewBox="0 0 32 32" fill="none" xmlns="http://www.w3.org/2000/svg">
<path d="M12.0007 24H17.334C17.7118 24 18.0287 23.872 18.2847 23.616C18.5407 23.36 18.6682 23.0435 18.6673 22.6667V21.3333L20.3673 22.2333C20.5895 22.3444 20.8064 22.3333 21.018 22.2C21.2295 22.0667 21.3349 21.8778 21.334 21.6333V18.3667C21.334 18.1222 21.2282 17.9333 21.0167 17.8C20.8051 17.6667 20.5887 17.6555 20.3673 17.7667L18.6673 18.6667V17.3333C18.6673 16.9555 18.5393 16.6391 18.2833 16.384C18.0273 16.1289 17.7109 16.0009 17.334 16H12.0007C11.6229 16 11.306 16.128 11.05 16.384C10.794 16.64 10.6664 16.9564 10.6673 17.3333V22.6667C10.6673 23.0444 10.7953 23.3613 11.0513 23.6173C11.3073 23.8733 11.6238 24.0009 12.0007 24ZM8.00065 29.3333C7.26732 29.3333 6.63932 29.072 6.11665 28.5493C5.59399 28.0267 5.3331 27.3991 5.33399 26.6667V5.33333C5.33399 4.59999 5.59532 3.97199 6.11799 3.44933C6.64065 2.92666 7.26821 2.66577 8.00065 2.66666H17.5673C17.9229 2.66666 18.262 2.73333 18.5847 2.86666C18.9073 2.99999 19.1904 3.18888 19.434 3.43333L25.9007 9.89999C26.1451 10.1444 26.334 10.428 26.4673 10.7507C26.6007 11.0733 26.6673 11.412 26.6673 11.7667V26.6667C26.6673 27.4 26.406 28.028 25.8833 28.5507C25.3607 29.0733 24.7331 29.3342 24.0007 29.3333H8.00065ZM18.6673 12H24.0007L17.334 5.33333V10.6667C17.334 11.0444 17.462 11.3613 17.718 11.6173C17.974 11.8733 18.2904 12.0009 18.6673 12Z" fill="#BB9A4D"/>
</svg>
