<svg width="116" height="50" viewBox="0 0 116 50" fill="none" xmlns="http://www.w3.org/2000/svg">
<path d="M39.7368 18.2351V41.3835C39.7368 41.8988 39.3193 42.318 38.8062 42.318H32.796C32.2829 42.318 31.8654 41.8988 31.8654 41.3835V18.2351C31.8654 17.7198 32.2829 17.3005 32.796 17.3005H38.8062C39.3193 17.3005 39.7368 17.7176 39.7368 18.2351ZM30.3389 41.2677L23.3372 29.2383L29.9737 18.3923C30.2911 17.9294 29.9628 17.2983 29.4039 17.2983L22.1087 17.3114C21.8782 17.3114 21.6607 17.4271 21.5324 17.6193L16.3768 26.4171H13.3673V18.2351C13.3673 17.7198 12.9499 17.3005 12.4368 17.3005H6.42871C5.91554 17.3005 5.49805 17.7198 5.49805 18.2351V41.3835C5.49805 41.8988 5.91554 42.318 6.42871 42.318H12.4389C12.952 42.318 13.3696 41.8988 13.3696 41.3835V33.2342H17.0313L22.1564 41.9883C22.2826 42.1979 22.5087 42.329 22.7522 42.329H29.7475C30.2911 42.329 30.6238 41.7328 30.3389 41.2677ZM109.121 42.318C109.635 42.318 110.052 41.8988 110.052 41.3835V18.2351C110.052 17.7198 109.635 17.3005 109.121 17.3005H103.329C102.815 17.3005 102.398 17.7198 102.398 18.2351L102.435 30.0767L91.9193 17.3114H85.2393C84.7262 17.3114 84.3087 17.7307 84.3087 18.246V41.3965C84.3087 41.9118 84.7239 42.329 85.2371 42.329H91.0168C91.53 42.329 91.9453 41.9118 91.9453 41.3965V29.5396L102.354 42.318H109.121ZM81.8993 18.3312V41.2852C81.8993 41.8551 81.4384 42.318 80.8709 42.318H43.1725C42.605 42.318 42.144 41.8551 42.144 41.2852V18.3312C42.144 17.7613 42.605 17.2983 43.1725 17.2983H80.873C81.4384 17.3005 81.8993 17.7613 81.8993 18.3312ZM74.0757 23.9518C74.0757 23.7443 73.8866 23.5892 73.6821 23.6308C69.6094 24.4475 55.1885 24.5719 50.3526 23.6242C50.1524 23.585 49.9677 23.74 49.9677 23.9474V35.3042C49.9677 35.5052 50.1438 35.658 50.3438 35.6296C54.3535 35.0336 69.5964 35.1317 73.7104 35.6428C73.9061 35.6668 74.0757 35.5139 74.0757 35.3174V23.9518Z" fill="white"/>
<path d="M5.22412 10.9354C5.22412 9.25188 6.46138 8.03125 8.07917 8.03125C9.70348 8.03125 10.9342 9.25188 10.9342 10.9354C10.9342 12.619 9.70348 13.8396 8.07917 13.8396C6.46138 13.8374 5.22412 12.6255 5.22412 10.9354ZM9.71 10.9354C9.71 9.7956 8.91633 9.14925 8.07917 9.14925C7.23331 9.14925 6.44834 9.79778 6.44834 10.9354C6.44834 12.0819 7.24201 12.7304 8.07917 12.7304C8.91633 12.7304 9.71 12.0731 9.71 10.9354Z" fill="white"/>
<path d="M16.4509 11.4856H14.1895V13.7106H12.9805V8.15771H14.1895V10.3828H16.4509V8.15771H17.6512V13.7106H16.4509V11.4856Z" fill="white"/>
<path d="M20.1343 12.6906C20.7932 12.6906 21.0606 12.2735 21.0606 11.2757V8.15527H24.8572V13.7081H23.6482V9.26453H22.2391V11.2604C22.2391 13.0247 21.6303 13.7474 20.1343 13.7474V12.6906Z" fill="white"/>
<path d="M31.265 13.7106L30.7757 12.3546H28.7079L28.2338 13.7106H26.9727L29.0405 8.15771H30.4343L32.5327 13.7106H31.265ZM29.0405 11.3589H30.4343L29.7385 9.4242L29.0405 11.3589Z" fill="white"/>
<path d="M34.6313 8.15767H35.7816V11.8872H35.7881L38.3323 8.15767H39.4956V13.7106H38.3475V9.93512H38.341L35.7904 13.7106H34.6336V8.15767H34.6313ZM37.0993 7.65762C36.3209 7.65762 35.6751 7.26239 35.6751 6.31689H36.5209C36.5209 6.77108 36.6993 7.01565 37.0993 7.01565C37.4995 7.01565 37.6777 6.7689 37.6777 6.31689H38.5236C38.5301 7.26457 37.8865 7.65762 37.0993 7.65762Z" fill="white"/>
<path d="M45.6491 11.4856H43.3877V13.7106H42.1787V8.15771H43.3877V10.3828H45.6491V8.15771H46.8494V13.7106H45.6491V11.4856Z" fill="white"/>
<path d="M49.3804 10.8828H51.5375V11.7977H49.3804V10.8828Z" fill="white"/>
<path d="M57.3498 13.7106L55.2667 11.0684V13.7106H54.0576V8.15771H55.2667V10.7628L57.3345 8.15771H58.7501L56.5409 10.8981L58.7936 13.7128H57.3498V13.7106Z" fill="white"/>
<path d="M60.8511 8.15771H62.0014V11.8873H62.0079L64.552 8.15771H65.7153V13.7106H64.5671V9.93516H64.5606L62.01 13.7106H60.8532V8.15771H60.8511Z" fill="white"/>
<path d="M71.8688 11.4856H69.6075V13.7106H68.3984V8.15771H69.6075V10.3828H71.8688V8.15771H73.0691V13.7106H71.8688V11.4856Z" fill="white"/>
<path d="M75.126 10.9354C75.126 9.25188 76.3632 8.03125 77.981 8.03125C79.6053 8.03125 80.836 9.25188 80.836 10.9354C80.836 12.619 79.6053 13.8396 77.981 13.8396C76.3632 13.8374 75.126 12.6255 75.126 10.9354ZM79.6118 10.9354C79.6118 9.7956 78.8181 9.14925 77.981 9.14925C77.1351 9.14925 76.3502 9.79778 76.3502 10.9354C76.3502 12.0819 77.1438 12.7304 77.981 12.7304C78.8181 12.7281 79.6118 12.0731 79.6118 10.9354Z" fill="white"/>
<path d="M83.8543 9.26698H82.23V8.15771H86.6703V9.26698H85.0546V13.7106H83.8543V9.26698Z" fill="white"/>
<path d="M88.5728 8.15771H92.0432V9.2517H89.7818V10.4046H91.8496V11.4091H89.7818V12.6231H92.0432V13.7106H88.5728V8.15771Z" fill="white"/>
<path d="M98.2708 13.7106L97.7816 12.3546H95.7137L95.2397 13.7106H93.9785L96.0464 8.15771H97.4402L99.5385 13.7106H98.2708ZM96.0464 11.3589H97.4402L96.7444 9.4242L96.0464 11.3589Z" fill="white"/>
<path d="M101.893 9.26698H100.269V8.15771H104.709V9.26698H103.094V13.7106H101.893V9.26698Z" fill="white"/>
<path d="M106.286 8.15771H107.917C109.436 8.15771 110.326 8.9176 110.326 10.1077C110.326 11.2322 109.495 12.1406 107.991 12.1406H107.493V13.7106H106.284V8.15771H106.286ZM109.102 10.1535C109.102 9.57268 108.665 9.26698 108.034 9.26698H107.493V11.0619H108.041C108.665 11.0619 109.102 10.7344 109.102 10.1535Z" fill="white"/>
</svg>
