<svg width="40" height="40" viewBox="0 0 40 40" fill="none" xmlns="http://www.w3.org/2000/svg">
<g clip-path="url(#clip0_40_1062)">
<path d="M19.9993 29.6C16.666 29.6 13.7193 27.8933 11.9993 25.3333C12.0393 22.6667 17.3327 21.2 19.9993 21.2C22.666 21.2 27.9593 22.6667 27.9993 25.3333C27.1179 26.6459 25.9272 27.7215 24.5321 28.4656C23.137 29.2096 21.5804 29.5992 19.9993 29.6ZM19.9993 10.6667C21.0602 10.6667 22.0776 11.0881 22.8278 11.8382C23.5779 12.5884 23.9993 13.6058 23.9993 14.6667C23.9993 15.7275 23.5779 16.7449 22.8278 17.4951C22.0776 18.2452 21.0602 18.6667 19.9993 18.6667C18.9385 18.6667 17.9211 18.2452 17.1709 17.4951C16.4208 16.7449 15.9993 15.7275 15.9993 14.6667C15.9993 13.6058 16.4208 12.5884 17.1709 11.8382C17.9211 11.0881 18.9385 10.6667 19.9993 10.6667ZM19.9993 6.66666C18.2484 6.66666 16.5146 7.01153 14.8969 7.6816C13.2792 8.35166 11.8094 9.33378 10.5713 10.5719C8.07077 13.0724 6.66602 16.4638 6.66602 20C6.66602 23.5362 8.07077 26.9276 10.5713 29.4281C11.8094 30.6662 13.2792 31.6483 14.8969 32.3184C16.5146 32.9884 18.2484 33.3333 19.9993 33.3333C23.5356 33.3333 26.927 31.9286 29.4274 29.4281C31.9279 26.9276 33.3327 23.5362 33.3327 20C33.3327 12.6267 27.3327 6.66666 19.9993 6.66666Z" fill="white"/>
</g>
<defs>
<clipPath id="clip0_40_1062">
<rect width="40" height="40" fill="white"/>
</clipPath>
</defs>
</svg>
